#!OML:ASF I:\golf\golf\golf 2\Subject 1\2002-09-07\Subject1.ASF
:FULLY-SPECIFIED
:DEGREES
348
root 2.21839 10.1153 -2.01431 11.3442 -7.45391 -4.82163
lowerback 41.3741 8.06158 3.85287
upperback 17.6126 11.0929 6.90995
thorax -0.661585 5.10674 1.49036
lowerneck -6.46315 -6.70684 0.706596
upperneck 27.3616 -5.74237 -13.6587
head 9.14859 -3.78406 -5.36655
rclavicle -2.54444e-014 -3.49861e-014
rhumerus 19.8212 1.35081 -74.822
rradius 38.1034
rwrist -0.600331
rhand -46.4356 23.6737
rfingers 7.12502
rthumb -19.1646 -5.40208
lclavicle -2.54444e-014 -3.49861e-014
lhumerus -35.3674 -42.8437 95.7545
lradius 98.6652
lwrist -30.6341
lhand -52.2928 29.8392
lfingers 7.12502
lthumb -24.7881 58.2527
rfemur -93.5779 -64.7041 36.1236
rtibia 137.82
rfoot -29.4973 17.7094
rtoes -16.3657
lfemur -96.6529 21.1426 -21.3389
ltibia 129.755
lfoot -30.662 -16.0855
ltoes -17.3912
349
root 2.21551 10.1183 -2.017 11.3665 -7.43893 -4.87843
lowerback 41.3637 8.07606 3.89564
upperback 17.6015 11.1276 6.93699
thorax -0.670132 5.12407 1.48533
lowerneck -6.3456 -6.72322 0.724207
upperneck 27.3305 -5.76866 -13.674
head 9.1111 -3.79165 -5.36841
rclavicle 1.46306e-013 -6.04305e-014
rhumerus 19.9251 1.0773 -74.9914
rradius 38.3513
rwrist -0.971762
rhand -46.0015 22.6811
rfingers 7.12502
rthumb -18.7471 -6.43556
lclavicle 1.46306e-013 -6.04305e-014
lhumerus -35.4747 -42.8851 95.7879
lradius 98.7967
lwrist -30.5085
lhand -52.2111 29.6917
lfingers 7.12502
lthumb -24.7098 58.116
rfemur -93.4948 -64.5911 36.1595
rtibia 137.782
rfoot -29.5545 17.6175
rtoes -16.5986
lfemur -96.6822 21.1961 -21.282
ltibia 129.719
lfoot -30.7569 -16.0072
ltoes -17.9443
350
root 2.21262 10.1218 -2.02045 11.3903 -7.42857 -4.90445
lowerback 41.3902 8.08239 3.91336
upperback 17.5794 11.1447 6.94712
thorax -0.70174 5.13131 1.47715
lowerneck -6.26629 -6.72329 0.718459
upperneck 27.3059 -5.76771 -13.6877
head 9.087 -3.79018 -5.36638
rclavicle -8.5875e-014 -2.06736e-014
rhumerus 20.1191 1.14419 -74.9264
rradius 38.3278
rwrist -1.28081
rhand -45.9467 21.5914
rfingers 7.12502
rthumb -18.6945 -7.53032
lclavicle -8.5875e-014 -2.06736e-014
lhumerus -35.5473 -42.8327 95.7737
lradius 98.8348
lwrist -30.568
lhand -52.1874 29.1067
lfingers 7.12502
lthumb -24.6872 57.5341
rfemur -93.4424 -64.4981 36.1377
rtibia 137.773
rfoot -29.5364 17.6807
rtoes -16.3856
lfemur -96.7044 21.2307 -21.2543
ltibia 129.674
lfoot -30.8578 -15.9459
ltoes -18.3116
351
root 2.21037 10.1252 -2.02294 11.4858 -7.39614 -4.89596
lowerback 41.3494 8.06106 3.91809
upperback 17.5521 11.1215 6.92819
thorax -0.715444 5.12172 1.46384
lowerneck -6.14773 -6.7211 0.645117
upperneck 27.214 -5.7793 -13.62
head 9.03757 -3.79157 -5.3193
rclavicle 1.33583e-013 3.65764e-014
rhumerus 20.3444 1.30665 -74.8584
rradius 38.1815
rwrist -1.4464
rhand -45.9262 20.8211
rfingers 7.12502
rthumb -18.6747 -8.30248
lclavicle 1.33583e-013 3.65764e-014
lhumerus -35.5625 -42.7616 95.7281
lradius 98.7558
lwrist -30.8872
lhand -52.332 28.975
lfingers 7.12502
lthumb -24.8257 57.3834
rfemur -93.6278 -64.3727 36.2941
rtibia 137.758
rfoot -29.5157 17.6596
rtoes -16.4603
lfemur -96.8117 21.2006 -21.289
ltibia 129.6
lfoot -30.6746 -16.1493
ltoes -17.6475
352
root 2.20825 10.1306 -2.02442 11.5599 -7.37756 -4.8336
lowerback 41.2575 8.08486 3.90611
upperback 17.5565 11.143 6.91808
thorax -0.684637 5.13506 1.45886
lowerneck -5.96926 -6.76578 0.651999
upperneck 27.0569 -5.87262 -13.5666
head 8.94196 -3.82146 -5.2888
rclavicle 3.18055e-014 1.35174e-014
rhumerus 20.4662 1.23123 -74.8629
rradius 38.1317
rwrist -1.54265
rhand -45.8953 20.4582
rfingers 7.12502
rthumb -18.645 -8.66826
lclavicle 3.18055e-014 1.35174e-014
lhumerus -35.6106 -42.8678 95.7718
lradius 98.7689
lwrist -31.1233
lhand -52.264 29.4469
lfingers 7.12502
lthumb -24.7605 57.8643
rfemur -93.8109 -64.2731 36.424
rtibia 137.714
rfoot -29.5337 17.491
rtoes -16.9238
lfemur -96.8626 21.139 -21.3694
ltibia 129.502
lfoot -30.5088 -16.2929
ltoes -17.1468
353
root 2.2055 10.14 -2.02594 11.534 -7.38057 -4.73344
lowerback 41.2401 8.13412 3.86706
upperback 17.5792 11.1864 6.91439
thorax -0.660715 5.15622 1.46205
lowerneck -5.84467 -6.80871 0.759782
upperneck 26.9778 -5.94886 -13.6065
head 8.87637 -3.84503 -5.31385
rclavicle -7.95139e-014 -1.19271e-014
rhumerus 20.6217 1.15459 -74.7972
rradius 37.9796
rwrist -1.56453
rhand -45.8475 19.8573
rfingers 7.12502
rthumb -18.599 -9.27359
lclavicle -7.95139e-014 -1.19271e-014
lhumerus -35.6914 -43.0351 95.8604
lradius 98.8108
lwrist -30.9485
lhand -52.1532 29.4464
lfingers 7.12502
lthumb -24.6543 57.8782
rfemur -93.7094 -64.2428 36.2628
rtibia 137.65
rfoot -29.5611 17.4543
rtoes -17.1515
lfemur -96.7444 21.0855 -21.4553
ltibia 129.393
lfoot -30.4955 -16.2485
ltoes -17.1745
354
root 2.20224 10.1515 -2.02701 11.533 -7.37016 -4.69981
lowerback 41.2083 8.11871 3.84857
upperback 17.602 11.1573 6.88847
thorax -0.623287 5.14439 1.45921
lowerneck -5.82802 -6.79751 0.814161
upperneck 27.0002 -5.92219 -13.6811
head 8.8773 -3.83418 -5.34743
rclavicle -2.22639e-014 -1.59028e-015
rhumerus 20.8749 1.2524 -74.7913
rradius 37.6107
rwrist -1.3258
rhand -45.9283 19.5929
rfingers 7.12502
rthumb -18.6768 -9.53047
lclavicle -2.22639e-014 -1.59028e-015
lhumerus -35.6593 -43.0503 95.8158
lradius 98.7319
lwrist -30.7081
lhand -52.3175 29.2334
lfingers 7.12502
lthumb -24.8118 57.6437
rfemur -93.5422 -64.1635 36.1391
rtibia 137.561
rfoot -29.6501 17.397
rtoes -17.403
lfemur -96.6795 21.0579 -21.4832
ltibia 129.305
lfoot -30.4115 -16.3215
ltoes -17.0162
355
root 2.19749 10.1627 -2.02884 11.5705 -7.36201 -4.69674
lowerback 41.16 8.1035 3.82182
upperback 17.6181 11.1256 6.86689
thorax -0.59089 5.1302 1.46605
lowerneck -5.78519 -6.78414 0.837719
upperneck 26.9926 -5.89116 -13.755
head 8.86492 -3.82314 -5.37218
rclavicle 5.40694e-014 5.56597e-015
rhumerus 21.0665 1.20931 -74.978
rradius 37.3054
rwrist -0.794409
rhand -46.2888 20.0178
rfingers 7.12502
rthumb -19.0234 -9.07187
lclavicle 5.40694e-014 5.56597e-015
lhumerus -35.5976 -42.9755 95.7156
lradius 98.6823
lwrist -30.9076
lhand -52.4558 29.7322
lfingers 7.12502
lthumb -24.9444 58.1241
rfemur -93.4354 -63.9779 36.1384
rtibia 137.457
rfoot -29.7436 17.1931
rtoes -17.6099
lfemur -96.6648 21.0517 -21.4734
ltibia 129.232
lfoot -30.3518 -16.4747
ltoes -16.6775
356
root 2.19267 10.1727 -2.03101 11.599 -7.36322 -4.6416
lowerback 41.1516 8.10433 3.74819
upperback 17.6163 11.0998 6.84453
thorax -0.597994 5.11497 1.48719
lowerneck -5.6276 -6.77097 0.796301
upperneck 26.9071 -5.8817 -13.7341
head 8.80898 -3.81502 -5.34383
rclavicle -3.18055e-015 3.18055e-014
rhumerus 21.2608 1.19223 -75.1259
rradius 37.0237
rwrist -0.582941
rhand -46.631 20.5799
rfingers 7.12502
rthumb -19.3525 -8.47711
lclavicle -3.18055e-015 3.18055e-014
lhumerus -35.6774 -42.8872 95.6971
lradius 98.7785
lwrist -31.0112
lhand -52.4468 30.0791
lfingers 7.12502
lthumb -24.9357 58.4722
rfemur -93.3427 -63.7784 36.0665
rtibia 137.367
rfoot -29.7585 17.0493
rtoes -17.784
lfemur -96.5575 21.0022 -21.491
ltibia 129.131
lfoot -30.4782 -16.3983
ltoes -16.7277
357
root 2.1896 10.182 -2.03206 11.6166 -7.35514 -4.59383
lowerback 41.1486 8.10911 3.7183
upperback 17.609 11.0953 6.82975
thorax -0.60714 5.11223 1.48719
lowerneck -5.46543 -6.7747 0.760907
upperneck 26.8512 -5.90031 -13.6828
head 8.76102 -3.81624 -5.30951
rclavicle -3.81667e-014 -5.40694e-014
rhumerus 21.5169 1.23008 -75.124
rradius 36.5591
rwrist -0.564399
rhand -46.7133 20.9033
rfingers 7.12502
rthumb -19.4317 -8.14576
lclavicle -3.81667e-014 -5.40694e-014
lhumerus -35.8297 -42.9202 95.7536
lradius 98.9561
lwrist -30.5492
lhand -52.307 29.7087
lfingers 7.12502
lthumb -24.8018 58.1203
rfemur -93.209 -63.6525 35.9296
rtibia 137.302
rfoot -29.747 17.0623
rtoes -17.7373
lfemur -96.403 20.9549 -21.5002
ltibia 129.024
lfoot -30.6541 -16.2512
ltoes -17.1095
